<svg xmlns="http://www.w3.org/2000/svg" xmlns:svg="http://www.w3.org/2000/svg" xmlns:xlink="http://www.w3.org/1999/xlink" id="svg2" width="320" height="320" version="1.1"><defs id="defs4"><linearGradient id="linearGradient3779"><stop id="stop3781" offset="0" stop-color="#000" stop-opacity="1"/><stop id="stop3787" offset=".5" stop-color="#505050" stop-opacity="1"/><stop id="stop3783" offset="1" stop-color="#a0a0a0" stop-opacity="1"/></linearGradient><linearGradient id="linearGradient3769"><stop id="stop3771" offset="0" stop-color="#000" stop-opacity="1"/><stop id="stop3777" offset=".5" stop-color="#3c3c3c" stop-opacity="1"/><stop id="stop3773" offset="1" stop-color="#787878" stop-opacity="1"/></linearGradient><linearGradient id="linearGradient3775" x1="480" x2="-160" y1="480" y2="-160" gradientUnits="userSpaceOnUse" xlink:href="#linearGradient3769"/><linearGradient id="linearGradient3785" x1="400" x2="-80" y1="400" y2="-80" gradientTransform="translate(0,-2.6171874e-6)" gradientUnits="userSpaceOnUse" xlink:href="#linearGradient3779"/><linearGradient id="linearGradient3880" x1="480" x2="-160" y1="480" y2="-160" gradientTransform="translate(0,732.36218)" gradientUnits="userSpaceOnUse" xlink:href="#linearGradient3779"/></defs><metadata id="metadata7"/><g id="layer1" transform="translate(0,-732.36218)"><rect id="rect2995" width="235.714" height="238.571" x="411.429" y="-152.857" fill="#b6b6b6" fill-opacity="1" fill-rule="nonzero" stroke="none" opacity=".98" transform="translate(0,732.36218)"/><rect id="rect3765" width="320" height="320" x="0" y="0" fill="url(#linearGradient3775)" fill-opacity="1" fill-rule="nonzero" stroke="none" opacity=".98" transform="translate(0,732.36218)"/><path id="rect3767" fill="url(#linearGradient3880)" fill-opacity="1" fill-rule="nonzero" stroke="none" d="m 20,752.36218 0,280.00002 280,0 0,-280.00002 -280,0 z m 20,20 20,0 0,20 -20,0 0,-20 z m 60,0 20,0 0,20 -20,0 0,-20 z m 100,0 20,0 0,20 -20,0 0,-20 z m 60,0 20,0 0,20 -20,0 0,-20 z m -220,60 20,0 0,20 -20,0 0,-20 z m 220,0 20,0 0,20 -20,0 0,-20 z m -220,100 20,0 0,20 -20,0 0,-20 z m 220,0 20,0 0,20 -20,0 0,-20 z m -220,60 20,0 0,20.00002 -20,0 0,-20.00002 z m 60,0 20,0 0,20.00002 -20,0 0,-20.00002 z m 100,0 20,0 0,20.00002 -20,0 0,-20.00002 z m 60,0 20,0 0,20.00002 -20,0 0,-20.00002 z" opacity=".98"/></g></svg>